<?xml version="1.0" encoding="UTF-8"?>
<svg xmlns="http://www.w3.org/2000/svg" xmlns:xlink="http://www.w3.org/1999/xlink" width="527.648pt" height="255.519pt" viewBox="0 0 527.648 255.519" version="1.1">
<g id="surface1">
<path style="fill:none;stroke-width:0.3985;stroke-linecap:butt;stroke-linejoin:miter;stroke:rgb(0%,0%,0%);stroke-opacity:1;stroke-miterlimit:10;" d="M 0.00021875 -0.0003125 L 527.254125 -0.0003125 M 0.00021875 8.503594 L 527.254125 8.503594 M 0.00021875 17.0075 L 527.254125 17.0075 M 0.00021875 25.511406 L 527.254125 25.511406 M 0.00021875 34.015312 L 527.254125 34.015312 M 0.00021875 42.519219 L 527.254125 42.519219 M 0.00021875 51.023125 L 527.254125 51.023125 M 0.00021875 59.527031 L 527.254125 59.527031 M 0.00021875 68.034844 L 527.254125 68.034844 M 0.00021875 76.53875 L 527.254125 76.53875 M 0.00021875 85.042656 L 527.254125 85.042656 M 0.00021875 93.546562 L 527.254125 93.546562 M 0.00021875 102.050469 L 527.254125 102.050469 M 0.00021875 110.554375 L 527.254125 110.554375 M 0.00021875 119.058281 L 527.254125 119.058281 M 0.00021875 127.562187 L 527.254125 127.562187 M 0.00021875 136.066094 L 527.254125 136.066094 M 0.00021875 144.57 L 527.254125 144.57 M 0.00021875 153.073906 L 527.254125 153.073906 M 0.00021875 161.577812 L 527.254125 161.577812 M 0.00021875 170.081719 L 527.254125 170.081719 M 0.00021875 178.585625 L 527.254125 178.585625 M 0.00021875 187.089531 L 527.254125 187.089531 M 0.00021875 195.593437 L 527.254125 195.593437 M 0.00021875 204.097344 L 527.254125 204.097344 M 0.00021875 212.605156 L 527.254125 212.605156 M 0.00021875 221.109062 L 527.254125 221.109062 M 0.00021875 229.612969 L 527.254125 229.612969 M 0.00021875 238.116875 L 527.254125 238.116875 M 0.00021875 246.620781 L 527.254125 246.620781 M 0.00021875 255.120781 L 527.254125 255.120781 M 0.00021875 -0.0003125 L 0.00021875 255.124687 M 8.504125 -0.0003125 L 8.504125 255.124687 M 17.008031 -0.0003125 L 17.008031 255.124687 M 25.511937 -0.0003125 L 25.511937 255.124687 M 34.015844 -0.0003125 L 34.015844 255.124687 M 42.51975 -0.0003125 L 42.51975 255.124687 M 51.023656 -0.0003125 L 51.023656 255.124687 M 59.527563 -0.0003125 L 59.527563 255.124687 M 68.031469 -0.0003125 L 68.031469 255.124687 M 76.535375 -0.0003125 L 76.535375 255.124687 M 85.043188 -0.0003125 L 85.043188 255.124687 M 93.547094 -0.0003125 L 93.547094 255.124687 M 102.051 -0.0003125 L 102.051 255.124687 M 110.554906 -0.0003125 L 110.554906 255.124687 M 119.058813 -0.0003125 L 119.058813 255.124687 M 127.562719 -0.0003125 L 127.562719 255.124687 M 136.066625 -0.0003125 L 136.066625 255.124687 M 144.570531 -0.0003125 L 144.570531 255.124687 M 153.074437 -0.0003125 L 153.074437 255.124687 M 161.578344 -0.0003125 L 161.578344 255.124687 M 170.08225 -0.0003125 L 170.08225 255.124687 M 178.586156 -0.0003125 L 178.586156 255.124687 M 187.090062 -0.0003125 L 187.090062 255.124687 M 195.593969 -0.0003125 L 195.593969 255.124687 M 204.097875 -0.0003125 L 204.097875 255.124687 M 212.601781 -0.0003125 L 212.601781 255.124687 M 221.105687 -0.0003125 L 221.105687 255.124687 M 229.609594 -0.0003125 L 229.609594 255.124687 M 238.117406 -0.0003125 L 238.117406 255.124687 M 246.621312 -0.0003125 L 246.621312 255.124687 M 255.125219 -0.0003125 L 255.125219 255.124687 M 263.629125 -0.0003125 L 263.629125 255.124687 M 272.133031 -0.0003125 L 272.133031 255.124687 M 280.636937 -0.0003125 L 280.636937 255.124687 M 289.140844 -0.0003125 L 289.140844 255.124687 M 297.64475 -0.0003125 L 297.64475 255.124687 M 306.148656 -0.0003125 L 306.148656 255.124687 M 314.652562 -0.0003125 L 314.652562 255.124687 M 323.156469 -0.0003125 L 323.156469 255.124687 M 331.660375 -0.0003125 L 331.660375 255.124687 M 340.164281 -0.0003125 L 340.164281 255.124687 M 348.668187 -0.0003125 L 348.668187 255.124687 M 357.172094 -0.0003125 L 357.172094 255.124687 M 365.676 -0.0003125 L 365.676 255.124687 M 374.179906 -0.0003125 L 374.179906 255.124687 M 382.687719 -0.0003125 L 382.687719 255.124687 M 391.191625 -0.0003125 L 391.191625 255.124687 M 399.695531 -0.0003125 L 399.695531 255.124687 M 408.199437 -0.0003125 L 408.199437 255.124687 M 416.703344 -0.0003125 L 416.703344 255.124687 M 425.20725 -0.0003125 L 425.20725 255.124687 M 433.711156 -0.0003125 L 433.711156 255.124687 M 442.215062 -0.0003125 L 442.215062 255.124687 M 450.718969 -0.0003125 L 450.718969 255.124687 M 459.222875 -0.0003125 L 459.222875 255.124687 M 467.726781 -0.0003125 L 467.726781 255.124687 M 476.230687 -0.0003125 L 476.230687 255.124687 M 484.734594 -0.0003125 L 484.734594 255.124687 M 493.2385 -0.0003125 L 493.2385 255.124687 M 501.742406 -0.0003125 L 501.742406 255.124687 M 510.246312 -0.0003125 L 510.246312 255.124687 M 518.750219 -0.0003125 L 518.750219 255.124687 M 527.254125 -0.0003125 L 527.254125 255.124687 " transform="matrix(1,0,0,-1,0.199,255.32)"/>
<path style=" stroke:none;fill-rule:nonzero;fill:rgb(49.804688%,0%,33.332825%);fill-opacity:1;" d="M 222.070312 24.945312 L 229.042969 24.945312 L 229.042969 17.972656 L 222.070312 17.972656 Z M 222.070312 24.945312 "/>
<path style=" stroke:none;fill-rule:nonzero;fill:rgb(49.804688%,0%,33.332825%);fill-opacity:1;" d="M 17.972656 33.449219 L 24.945312 33.449219 L 24.945312 26.476562 L 17.972656 26.476562 Z M 17.972656 33.449219 "/>
<path style=" stroke:none;fill-rule:nonzero;fill:rgb(49.804688%,0%,33.332825%);fill-opacity:1;" d="M 222.070312 33.449219 L 229.042969 33.449219 L 229.042969 26.476562 L 222.070312 26.476562 Z M 222.070312 33.449219 "/>
<path style=" stroke:none;fill-rule:nonzero;fill:rgb(49.804688%,0%,33.332825%);fill-opacity:1;" d="M 230.574219 33.449219 L 237.546875 33.449219 L 237.546875 26.476562 L 230.574219 26.476562 Z M 230.574219 33.449219 "/>
<path style=" stroke:none;fill-rule:nonzero;fill:rgb(49.804688%,0%,33.332825%);fill-opacity:1;" d="M 443.171875 33.449219 L 450.148438 33.449219 L 450.148438 26.476562 L 443.171875 26.476562 Z M 443.171875 33.449219 "/>
<path style=" stroke:none;fill-rule:nonzero;fill:rgb(49.804688%,0%,33.332825%);fill-opacity:1;" d="M 26.476562 41.953125 L 33.449219 41.953125 L 33.449219 34.980469 L 26.476562 34.980469 Z M 26.476562 41.953125 "/>
<path style=" stroke:none;fill-rule:nonzero;fill:rgb(49.804688%,0%,33.332825%);fill-opacity:1;" d="M 34.980469 41.953125 L 41.953125 41.953125 L 41.953125 34.980469 L 34.980469 34.980469 Z M 34.980469 41.953125 "/>
<path style=" stroke:none;fill-rule:nonzero;fill:rgb(49.804688%,0%,33.332825%);fill-opacity:1;" d="M 43.484375 41.953125 L 50.457031 41.953125 L 50.457031 34.980469 L 43.484375 34.980469 Z M 43.484375 41.953125 "/>
<path style=" stroke:none;fill-rule:nonzero;fill:rgb(49.804688%,0%,33.332825%);fill-opacity:1;" d="M 222.070312 41.953125 L 229.042969 41.953125 L 229.042969 34.980469 L 222.070312 34.980469 Z M 222.070312 41.953125 "/>
<path style=" stroke:none;fill-rule:nonzero;fill:rgb(49.804688%,0%,33.332825%);fill-opacity:1;" d="M 451.675781 41.953125 L 458.652344 41.953125 L 458.652344 34.980469 L 451.675781 34.980469 Z M 451.675781 41.953125 "/>
<path style=" stroke:none;fill-rule:nonzero;fill:rgb(49.804688%,0%,33.332825%);fill-opacity:1;" d="M 51.988281 50.457031 L 58.960938 50.457031 L 58.960938 43.484375 L 51.988281 43.484375 Z M 51.988281 50.457031 "/>
<path style=" stroke:none;fill-rule:nonzero;fill:rgb(49.804688%,0%,33.332825%);fill-opacity:1;" d="M 60.492188 50.457031 L 67.464844 50.457031 L 67.464844 43.484375 L 60.492188 43.484375 Z M 60.492188 50.457031 "/>
<path style=" stroke:none;fill-rule:nonzero;fill:rgb(49.804688%,0%,33.332825%);fill-opacity:1;" d="M 68.996094 50.457031 L 75.96875 50.457031 L 75.96875 43.484375 L 68.996094 43.484375 Z M 68.996094 50.457031 "/>
<path style=" stroke:none;fill-rule:nonzero;fill:rgb(49.804688%,0%,33.332825%);fill-opacity:1;" d="M 213.566406 50.457031 L 220.539062 50.457031 L 220.539062 43.484375 L 213.566406 43.484375 Z M 213.566406 50.457031 "/>
<path style=" stroke:none;fill-rule:nonzero;fill:rgb(49.804688%,0%,33.332825%);fill-opacity:1;" d="M 222.070312 50.457031 L 229.042969 50.457031 L 229.042969 43.484375 L 222.070312 43.484375 Z M 222.070312 50.457031 "/>
<path style=" stroke:none;fill-rule:nonzero;fill:rgb(49.804688%,0%,33.332825%);fill-opacity:1;" d="M 451.675781 50.457031 L 458.652344 50.457031 L 458.652344 43.484375 L 451.675781 43.484375 Z M 451.675781 50.457031 "/>
<path style=" stroke:none;fill-rule:nonzero;fill:rgb(49.804688%,0%,33.332825%);fill-opacity:1;" d="M 77.5 58.960938 L 84.472656 58.960938 L 84.472656 51.988281 L 77.5 51.988281 Z M 77.5 58.960938 "/>
<path style=" stroke:none;fill-rule:nonzero;fill:rgb(49.804688%,0%,33.332825%);fill-opacity:1;" d="M 86.003906 58.960938 L 92.976562 58.960938 L 92.976562 51.988281 L 86.003906 51.988281 Z M 86.003906 58.960938 "/>
<path style=" stroke:none;fill-rule:nonzero;fill:rgb(49.804688%,0%,33.332825%);fill-opacity:1;" d="M 94.507812 58.960938 L 101.480469 58.960938 L 101.480469 51.988281 L 94.507812 51.988281 Z M 94.507812 58.960938 "/>
<path style=" stroke:none;fill-rule:nonzero;fill:rgb(49.804688%,0%,33.332825%);fill-opacity:1;" d="M 205.0625 58.960938 L 212.035156 58.960938 L 212.035156 51.988281 L 205.0625 51.988281 Z M 205.0625 58.960938 "/>
<path style=" stroke:none;fill-rule:nonzero;fill:rgb(49.804688%,0%,33.332825%);fill-opacity:1;" d="M 222.070312 58.960938 L 229.042969 58.960938 L 229.042969 51.988281 L 222.070312 51.988281 Z M 222.070312 58.960938 "/>
<path style=" stroke:none;fill-rule:nonzero;fill:rgb(49.804688%,0%,33.332825%);fill-opacity:1;" d="M 460.179688 58.960938 L 467.15625 58.960938 L 467.15625 51.988281 L 460.179688 51.988281 Z M 460.179688 58.960938 "/>
<path style=" stroke:none;fill-rule:nonzero;fill:rgb(49.804688%,0%,33.332825%);fill-opacity:1;" d="M 103.011719 67.464844 L 109.984375 67.464844 L 109.984375 60.492188 L 103.011719 60.492188 Z M 103.011719 67.464844 "/>
<path style=" stroke:none;fill-rule:nonzero;fill:rgb(49.804688%,0%,33.332825%);fill-opacity:1;" d="M 111.515625 67.464844 L 118.488281 67.464844 L 118.488281 60.492188 L 111.515625 60.492188 Z M 111.515625 67.464844 "/>
<path style=" stroke:none;fill-rule:nonzero;fill:rgb(49.804688%,0%,33.332825%);fill-opacity:1;" d="M 120.019531 67.464844 L 126.992188 67.464844 L 126.992188 60.492188 L 120.019531 60.492188 Z M 120.019531 67.464844 "/>
<path style=" stroke:none;fill-rule:nonzero;fill:rgb(49.804688%,0%,33.332825%);fill-opacity:1;" d="M 128.523438 67.464844 L 135.496094 67.464844 L 135.496094 60.492188 L 128.523438 60.492188 Z M 128.523438 67.464844 "/>
<path style=" stroke:none;fill-rule:nonzero;fill:rgb(49.804688%,0%,33.332825%);fill-opacity:1;" d="M 196.558594 67.464844 L 203.53125 67.464844 L 203.53125 60.492188 L 196.558594 60.492188 Z M 196.558594 67.464844 "/>
<path style=" stroke:none;fill-rule:nonzero;fill:rgb(49.804688%,0%,33.332825%);fill-opacity:1;" d="M 222.070312 67.464844 L 229.042969 67.464844 L 229.042969 60.492188 L 222.070312 60.492188 Z M 222.070312 67.464844 "/>
<path style=" stroke:none;fill-rule:nonzero;fill:rgb(49.804688%,0%,33.332825%);fill-opacity:1;" d="M 460.179688 67.464844 L 467.15625 67.464844 L 467.15625 60.492188 L 460.179688 60.492188 Z M 460.179688 67.464844 "/>
<path style=" stroke:none;fill-rule:nonzero;fill:rgb(49.804688%,0%,33.332825%);fill-opacity:1;" d="M 137.027344 75.96875 L 144.003906 75.96875 L 144.003906 68.996094 L 137.027344 68.996094 Z M 137.027344 75.96875 "/>
<path style=" stroke:none;fill-rule:nonzero;fill:rgb(49.804688%,0%,33.332825%);fill-opacity:1;" d="M 145.53125 75.96875 L 152.507812 75.96875 L 152.507812 68.996094 L 145.53125 68.996094 Z M 145.53125 75.96875 "/>
<path style=" stroke:none;fill-rule:nonzero;fill:rgb(49.804688%,0%,33.332825%);fill-opacity:1;" d="M 154.035156 75.96875 L 161.011719 75.96875 L 161.011719 68.996094 L 154.035156 68.996094 Z M 154.035156 75.96875 "/>
<path style=" stroke:none;fill-rule:nonzero;fill:rgb(49.804688%,0%,33.332825%);fill-opacity:1;" d="M 188.054688 75.96875 L 195.027344 75.96875 L 195.027344 68.996094 L 188.054688 68.996094 Z M 188.054688 75.96875 "/>
<path style=" stroke:none;fill-rule:nonzero;fill:rgb(49.804688%,0%,33.332825%);fill-opacity:1;" d="M 222.070312 75.96875 L 229.042969 75.96875 L 229.042969 68.996094 L 222.070312 68.996094 Z M 222.070312 75.96875 "/>
<path style=" stroke:none;fill-rule:nonzero;fill:rgb(49.804688%,0%,33.332825%);fill-opacity:1;" d="M 460.179688 75.96875 L 467.15625 75.96875 L 467.15625 68.996094 L 460.179688 68.996094 Z M 460.179688 75.96875 "/>
<path style=" stroke:none;fill-rule:nonzero;fill:rgb(49.804688%,0%,33.332825%);fill-opacity:1;" d="M 162.539062 84.472656 L 169.515625 84.472656 L 169.515625 77.5 L 162.539062 77.5 Z M 162.539062 84.472656 "/>
<path style=" stroke:none;fill-rule:nonzero;fill:rgb(49.804688%,0%,33.332825%);fill-opacity:1;" d="M 171.042969 84.472656 L 178.019531 84.472656 L 178.019531 77.5 L 171.042969 77.5 Z M 171.042969 84.472656 "/>
<path style=" stroke:none;fill-rule:nonzero;fill:rgb(49.804688%,0%,33.332825%);fill-opacity:1;" d="M 179.550781 84.472656 L 186.523438 84.472656 L 186.523438 77.5 L 179.550781 77.5 Z M 179.550781 84.472656 "/>
<path style=" stroke:none;fill-rule:nonzero;fill:rgb(49.804688%,0%,33.332825%);fill-opacity:1;" d="M 222.070312 84.472656 L 229.042969 84.472656 L 229.042969 77.5 L 222.070312 77.5 Z M 222.070312 84.472656 "/>
<path style=" stroke:none;fill-rule:nonzero;fill:rgb(49.804688%,0%,33.332825%);fill-opacity:1;" d="M 468.683594 84.472656 L 475.660156 84.472656 L 475.660156 77.5 L 468.683594 77.5 Z M 468.683594 84.472656 "/>
<path style=" stroke:none;fill-rule:nonzero;fill:rgb(49.804688%,0%,33.332825%);fill-opacity:1;" d="M 34.980469 92.976562 L 41.953125 92.976562 L 41.953125 86.003906 L 34.980469 86.003906 Z M 34.980469 92.976562 "/>
<path style=" stroke:none;fill-rule:nonzero;fill:rgb(49.804688%,0%,33.332825%);fill-opacity:1;" d="M 171.042969 92.976562 L 178.019531 92.976562 L 178.019531 86.003906 L 171.042969 86.003906 Z M 171.042969 92.976562 "/>
<path style=" stroke:none;fill-rule:nonzero;fill:rgb(49.804688%,0%,33.332825%);fill-opacity:1;" d="M 188.054688 92.976562 L 195.027344 92.976562 L 195.027344 86.003906 L 188.054688 86.003906 Z M 188.054688 92.976562 "/>
<path style=" stroke:none;fill-rule:nonzero;fill:rgb(49.804688%,0%,33.332825%);fill-opacity:1;" d="M 196.558594 92.976562 L 203.53125 92.976562 L 203.53125 86.003906 L 196.558594 86.003906 Z M 196.558594 92.976562 "/>
<path style=" stroke:none;fill-rule:nonzero;fill:rgb(49.804688%,0%,33.332825%);fill-opacity:1;" d="M 205.0625 92.976562 L 212.035156 92.976562 L 212.035156 86.003906 L 205.0625 86.003906 Z M 205.0625 92.976562 "/>
<path style=" stroke:none;fill-rule:nonzero;fill:rgb(49.804688%,0%,33.332825%);fill-opacity:1;" d="M 213.566406 92.976562 L 220.539062 92.976562 L 220.539062 86.003906 L 213.566406 86.003906 Z M 213.566406 92.976562 "/>
<path style=" stroke:none;fill-rule:nonzero;fill:rgb(49.804688%,0%,33.332825%);fill-opacity:1;" d="M 222.070312 92.976562 L 229.042969 92.976562 L 229.042969 86.003906 L 222.070312 86.003906 Z M 222.070312 92.976562 "/>
<path style=" stroke:none;fill-rule:nonzero;fill:rgb(49.804688%,0%,33.332825%);fill-opacity:1;" d="M 468.683594 92.976562 L 475.660156 92.976562 L 475.660156 86.003906 L 468.683594 86.003906 Z M 468.683594 92.976562 "/>
<path style=" stroke:none;fill-rule:nonzero;fill:rgb(49.804688%,0%,33.332825%);fill-opacity:1;" d="M 34.980469 101.480469 L 41.953125 101.480469 L 41.953125 94.507812 L 34.980469 94.507812 Z M 34.980469 101.480469 "/>
<path style=" stroke:none;fill-rule:nonzero;fill:rgb(49.804688%,0%,33.332825%);fill-opacity:1;" d="M 162.539062 101.480469 L 169.515625 101.480469 L 169.515625 94.507812 L 162.539062 94.507812 Z M 162.539062 101.480469 "/>
<path style=" stroke:none;fill-rule:nonzero;fill:rgb(49.804688%,0%,33.332825%);fill-opacity:1;" d="M 222.070312 101.480469 L 229.042969 101.480469 L 229.042969 94.507812 L 222.070312 94.507812 Z M 222.070312 101.480469 "/>
<path style=" stroke:none;fill-rule:nonzero;fill:rgb(49.804688%,0%,33.332825%);fill-opacity:1;" d="M 230.574219 101.480469 L 237.546875 101.480469 L 237.546875 94.507812 L 230.574219 94.507812 Z M 230.574219 101.480469 "/>
<path style=" stroke:none;fill-rule:nonzero;fill:rgb(49.804688%,0%,33.332825%);fill-opacity:1;" d="M 239.078125 101.480469 L 246.050781 101.480469 L 246.050781 94.507812 L 239.078125 94.507812 Z M 239.078125 101.480469 "/>
<path style=" stroke:none;fill-rule:nonzero;fill:rgb(49.804688%,0%,33.332825%);fill-opacity:1;" d="M 468.683594 101.480469 L 475.660156 101.480469 L 475.660156 94.507812 L 468.683594 94.507812 Z M 468.683594 101.480469 "/>
<path style=" stroke:none;fill-rule:nonzero;fill:rgb(49.804688%,0%,33.332825%);fill-opacity:1;" d="M 34.980469 109.984375 L 41.953125 109.984375 L 41.953125 103.011719 L 34.980469 103.011719 Z M 34.980469 109.984375 "/>
<path style=" stroke:none;fill-rule:nonzero;fill:rgb(49.804688%,0%,33.332825%);fill-opacity:1;" d="M 154.035156 109.984375 L 161.011719 109.984375 L 161.011719 103.011719 L 154.035156 103.011719 Z M 154.035156 109.984375 "/>
<path style=" stroke:none;fill-rule:nonzero;fill:rgb(49.804688%,0%,33.332825%);fill-opacity:1;" d="M 222.070312 109.984375 L 229.042969 109.984375 L 229.042969 103.011719 L 222.070312 103.011719 Z M 222.070312 109.984375 "/>
<path style=" stroke:none;fill-rule:nonzero;fill:rgb(49.804688%,0%,33.332825%);fill-opacity:1;" d="M 247.582031 109.984375 L 254.554688 109.984375 L 254.554688 103.011719 L 247.582031 103.011719 Z M 247.582031 109.984375 "/>
<path style=" stroke:none;fill-rule:nonzero;fill:rgb(49.804688%,0%,33.332825%);fill-opacity:1;" d="M 256.085938 109.984375 L 263.058594 109.984375 L 263.058594 103.011719 L 256.085938 103.011719 Z M 256.085938 109.984375 "/>
<path style=" stroke:none;fill-rule:nonzero;fill:rgb(49.804688%,0%,33.332825%);fill-opacity:1;" d="M 264.589844 109.984375 L 271.5625 109.984375 L 271.5625 103.011719 L 264.589844 103.011719 Z M 264.589844 109.984375 "/>
<path style=" stroke:none;fill-rule:nonzero;fill:rgb(49.804688%,0%,33.332825%);fill-opacity:1;" d="M 477.1875 109.984375 L 484.164062 109.984375 L 484.164062 103.011719 L 477.1875 103.011719 Z M 477.1875 109.984375 "/>
<path style=" stroke:none;fill-rule:nonzero;fill:rgb(49.804688%,0%,33.332825%);fill-opacity:1;" d="M 34.980469 118.488281 L 41.953125 118.488281 L 41.953125 111.515625 L 34.980469 111.515625 Z M 34.980469 118.488281 "/>
<path style=" stroke:none;fill-rule:nonzero;fill:rgb(49.804688%,0%,33.332825%);fill-opacity:1;" d="M 145.53125 118.488281 L 152.507812 118.488281 L 152.507812 111.515625 L 145.53125 111.515625 Z M 145.53125 118.488281 "/>
<path style=" stroke:none;fill-rule:nonzero;fill:rgb(49.804688%,0%,33.332825%);fill-opacity:1;" d="M 222.070312 118.488281 L 229.042969 118.488281 L 229.042969 111.515625 L 222.070312 111.515625 Z M 222.070312 118.488281 "/>
<path style=" stroke:none;fill-rule:nonzero;fill:rgb(49.804688%,0%,33.332825%);fill-opacity:1;" d="M 273.09375 118.488281 L 280.066406 118.488281 L 280.066406 111.515625 L 273.09375 111.515625 Z M 273.09375 118.488281 "/>
<path style=" stroke:none;fill-rule:nonzero;fill:rgb(49.804688%,0%,33.332825%);fill-opacity:1;" d="M 281.597656 118.488281 L 288.570312 118.488281 L 288.570312 111.515625 L 281.597656 111.515625 Z M 281.597656 118.488281 "/>
<path style=" stroke:none;fill-rule:nonzero;fill:rgb(49.804688%,0%,33.332825%);fill-opacity:1;" d="M 290.101562 118.488281 L 297.074219 118.488281 L 297.074219 111.515625 L 290.101562 111.515625 Z M 290.101562 118.488281 "/>
<path style=" stroke:none;fill-rule:nonzero;fill:rgb(49.804688%,0%,33.332825%);fill-opacity:1;" d="M 477.1875 118.488281 L 484.164062 118.488281 L 484.164062 111.515625 L 477.1875 111.515625 Z M 477.1875 118.488281 "/>
<path style=" stroke:none;fill-rule:nonzero;fill:rgb(49.804688%,0%,33.332825%);fill-opacity:1;" d="M 34.980469 126.992188 L 41.953125 126.992188 L 41.953125 120.019531 L 34.980469 120.019531 Z M 34.980469 126.992188 "/>
<path style=" stroke:none;fill-rule:nonzero;fill:rgb(49.804688%,0%,33.332825%);fill-opacity:1;" d="M 137.027344 126.992188 L 144.003906 126.992188 L 144.003906 120.019531 L 137.027344 120.019531 Z M 137.027344 126.992188 "/>
<path style=" stroke:none;fill-rule:nonzero;fill:rgb(49.804688%,0%,33.332825%);fill-opacity:1;" d="M 222.070312 126.992188 L 229.042969 126.992188 L 229.042969 120.019531 L 222.070312 120.019531 Z M 222.070312 126.992188 "/>
<path style=" stroke:none;fill-rule:nonzero;fill:rgb(49.804688%,0%,33.332825%);fill-opacity:1;" d="M 298.605469 126.992188 L 305.578125 126.992188 L 305.578125 120.019531 L 298.605469 120.019531 Z M 298.605469 126.992188 "/>
<path style=" stroke:none;fill-rule:nonzero;fill:rgb(49.804688%,0%,33.332825%);fill-opacity:1;" d="M 307.109375 126.992188 L 314.082031 126.992188 L 314.082031 120.019531 L 307.109375 120.019531 Z M 307.109375 126.992188 "/>
<path style=" stroke:none;fill-rule:nonzero;fill:rgb(49.804688%,0%,33.332825%);fill-opacity:1;" d="M 315.613281 126.992188 L 322.585938 126.992188 L 322.585938 120.019531 L 315.613281 120.019531 Z M 315.613281 126.992188 "/>
<path style=" stroke:none;fill-rule:nonzero;fill:rgb(49.804688%,0%,33.332825%);fill-opacity:1;" d="M 324.117188 126.992188 L 331.089844 126.992188 L 331.089844 120.019531 L 324.117188 120.019531 Z M 324.117188 126.992188 "/>
<path style=" stroke:none;fill-rule:nonzero;fill:rgb(49.804688%,0%,33.332825%);fill-opacity:1;" d="M 477.1875 126.992188 L 484.164062 126.992188 L 484.164062 120.019531 L 477.1875 120.019531 Z M 477.1875 126.992188 "/>
<path style=" stroke:none;fill-rule:nonzero;fill:rgb(49.804688%,0%,33.332825%);fill-opacity:1;" d="M 34.980469 135.496094 L 41.953125 135.496094 L 41.953125 128.523438 L 34.980469 128.523438 Z M 34.980469 135.496094 "/>
<path style=" stroke:none;fill-rule:nonzero;fill:rgb(49.804688%,0%,33.332825%);fill-opacity:1;" d="M 128.523438 135.496094 L 135.496094 135.496094 L 135.496094 128.523438 L 128.523438 128.523438 Z M 128.523438 135.496094 "/>
<path style=" stroke:none;fill-rule:nonzero;fill:rgb(49.804688%,0%,33.332825%);fill-opacity:1;" d="M 222.070312 135.496094 L 229.042969 135.496094 L 229.042969 128.523438 L 222.070312 128.523438 Z M 222.070312 135.496094 "/>
<path style=" stroke:none;fill-rule:nonzero;fill:rgb(49.804688%,0%,33.332825%);fill-opacity:1;" d="M 332.621094 135.496094 L 339.59375 135.496094 L 339.59375 128.523438 L 332.621094 128.523438 Z M 332.621094 135.496094 "/>
<path style=" stroke:none;fill-rule:nonzero;fill:rgb(49.804688%,0%,33.332825%);fill-opacity:1;" d="M 341.125 135.496094 L 348.097656 135.496094 L 348.097656 128.523438 L 341.125 128.523438 Z M 341.125 135.496094 "/>
<path style=" stroke:none;fill-rule:nonzero;fill:rgb(49.804688%,0%,33.332825%);fill-opacity:1;" d="M 349.628906 135.496094 L 356.601562 135.496094 L 356.601562 128.523438 L 349.628906 128.523438 Z M 349.628906 135.496094 "/>
<path style=" stroke:none;fill-rule:nonzero;fill:rgb(49.804688%,0%,33.332825%);fill-opacity:1;" d="M 485.691406 135.496094 L 492.667969 135.496094 L 492.667969 128.523438 L 485.691406 128.523438 Z M 485.691406 135.496094 "/>
<path style=" stroke:none;fill-rule:nonzero;fill:rgb(49.804688%,0%,33.332825%);fill-opacity:1;" d="M 34.980469 144.003906 L 41.953125 144.003906 L 41.953125 137.027344 L 34.980469 137.027344 Z M 34.980469 144.003906 "/>
<path style=" stroke:none;fill-rule:nonzero;fill:rgb(49.804688%,0%,33.332825%);fill-opacity:1;" d="M 120.019531 144.003906 L 126.992188 144.003906 L 126.992188 137.027344 L 120.019531 137.027344 Z M 120.019531 144.003906 "/>
<path style=" stroke:none;fill-rule:nonzero;fill:rgb(49.804688%,0%,33.332825%);fill-opacity:1;" d="M 222.070312 144.003906 L 229.042969 144.003906 L 229.042969 137.027344 L 222.070312 137.027344 Z M 222.070312 144.003906 "/>
<path style=" stroke:none;fill-rule:nonzero;fill:rgb(49.804688%,0%,33.332825%);fill-opacity:1;" d="M 358.132812 144.003906 L 365.105469 144.003906 L 365.105469 137.027344 L 358.132812 137.027344 Z M 358.132812 144.003906 "/>
<path style=" stroke:none;fill-rule:nonzero;fill:rgb(49.804688%,0%,33.332825%);fill-opacity:1;" d="M 366.636719 144.003906 L 373.609375 144.003906 L 373.609375 137.027344 L 366.636719 137.027344 Z M 366.636719 144.003906 "/>
<path style=" stroke:none;fill-rule:nonzero;fill:rgb(49.804688%,0%,33.332825%);fill-opacity:1;" d="M 375.140625 144.003906 L 382.113281 144.003906 L 382.113281 137.027344 L 375.140625 137.027344 Z M 375.140625 144.003906 "/>
<path style=" stroke:none;fill-rule:nonzero;fill:rgb(49.804688%,0%,33.332825%);fill-opacity:1;" d="M 485.691406 144.003906 L 492.667969 144.003906 L 492.667969 137.027344 L 485.691406 137.027344 Z M 485.691406 144.003906 "/>
<path style=" stroke:none;fill-rule:nonzero;fill:rgb(49.804688%,0%,33.332825%);fill-opacity:1;" d="M 34.980469 152.507812 L 41.953125 152.507812 L 41.953125 145.53125 L 34.980469 145.53125 Z M 34.980469 152.507812 "/>
<path style=" stroke:none;fill-rule:nonzero;fill:rgb(49.804688%,0%,33.332825%);fill-opacity:1;" d="M 111.515625 152.507812 L 118.488281 152.507812 L 118.488281 145.53125 L 111.515625 145.53125 Z M 111.515625 152.507812 "/>
<path style=" stroke:none;fill-rule:nonzero;fill:rgb(49.804688%,0%,33.332825%);fill-opacity:1;" d="M 222.070312 152.507812 L 229.042969 152.507812 L 229.042969 145.53125 L 222.070312 145.53125 Z M 222.070312 152.507812 "/>
<path style=" stroke:none;fill-rule:nonzero;fill:rgb(49.804688%,0%,33.332825%);fill-opacity:1;" d="M 383.644531 152.507812 L 390.617188 152.507812 L 390.617188 145.53125 L 383.644531 145.53125 Z M 383.644531 152.507812 "/>
<path style=" stroke:none;fill-rule:nonzero;fill:rgb(49.804688%,0%,33.332825%);fill-opacity:1;" d="M 392.148438 152.507812 L 399.121094 152.507812 L 399.121094 145.53125 L 392.148438 145.53125 Z M 392.148438 152.507812 "/>
<path style=" stroke:none;fill-rule:nonzero;fill:rgb(49.804688%,0%,33.332825%);fill-opacity:1;" d="M 400.652344 152.507812 L 407.628906 152.507812 L 407.628906 145.53125 L 400.652344 145.53125 Z M 400.652344 152.507812 "/>
<path style=" stroke:none;fill-rule:nonzero;fill:rgb(49.804688%,0%,33.332825%);fill-opacity:1;" d="M 409.15625 152.507812 L 416.132812 152.507812 L 416.132812 145.53125 L 409.15625 145.53125 Z M 409.15625 152.507812 "/>
<path style=" stroke:none;fill-rule:nonzero;fill:rgb(49.804688%,0%,33.332825%);fill-opacity:1;" d="M 485.691406 152.507812 L 492.667969 152.507812 L 492.667969 145.53125 L 485.691406 145.53125 Z M 485.691406 152.507812 "/>
<path style=" stroke:none;fill-rule:nonzero;fill:rgb(49.804688%,0%,33.332825%);fill-opacity:1;" d="M 43.484375 161.011719 L 50.457031 161.011719 L 50.457031 154.035156 L 43.484375 154.035156 Z M 43.484375 161.011719 "/>
<path style=" stroke:none;fill-rule:nonzero;fill:rgb(49.804688%,0%,33.332825%);fill-opacity:1;" d="M 103.011719 161.011719 L 109.984375 161.011719 L 109.984375 154.035156 L 103.011719 154.035156 Z M 103.011719 161.011719 "/>
<path style=" stroke:none;fill-rule:nonzero;fill:rgb(49.804688%,0%,33.332825%);fill-opacity:1;" d="M 222.070312 161.011719 L 229.042969 161.011719 L 229.042969 154.035156 L 222.070312 154.035156 Z M 222.070312 161.011719 "/>
<path style=" stroke:none;fill-rule:nonzero;fill:rgb(49.804688%,0%,33.332825%);fill-opacity:1;" d="M 417.660156 161.011719 L 424.636719 161.011719 L 424.636719 154.035156 L 417.660156 154.035156 Z M 417.660156 161.011719 "/>
<path style=" stroke:none;fill-rule:nonzero;fill:rgb(49.804688%,0%,33.332825%);fill-opacity:1;" d="M 426.164062 161.011719 L 433.140625 161.011719 L 433.140625 154.035156 L 426.164062 154.035156 Z M 426.164062 161.011719 "/>
<path style=" stroke:none;fill-rule:nonzero;fill:rgb(49.804688%,0%,33.332825%);fill-opacity:1;" d="M 434.667969 161.011719 L 441.644531 161.011719 L 441.644531 154.035156 L 434.667969 154.035156 Z M 434.667969 161.011719 "/>
<path style=" stroke:none;fill-rule:nonzero;fill:rgb(49.804688%,0%,33.332825%);fill-opacity:1;" d="M 494.195312 161.011719 L 501.171875 161.011719 L 501.171875 154.035156 L 494.195312 154.035156 Z M 494.195312 161.011719 "/>
<path style=" stroke:none;fill-rule:nonzero;fill:rgb(49.804688%,0%,33.332825%);fill-opacity:1;" d="M 43.484375 169.515625 L 50.457031 169.515625 L 50.457031 162.539062 L 43.484375 162.539062 Z M 43.484375 169.515625 "/>
<path style=" stroke:none;fill-rule:nonzero;fill:rgb(49.804688%,0%,33.332825%);fill-opacity:1;" d="M 94.507812 169.515625 L 101.480469 169.515625 L 101.480469 162.539062 L 94.507812 162.539062 Z M 94.507812 169.515625 "/>
<path style=" stroke:none;fill-rule:nonzero;fill:rgb(49.804688%,0%,33.332825%);fill-opacity:1;" d="M 222.070312 169.515625 L 229.042969 169.515625 L 229.042969 162.539062 L 222.070312 162.539062 Z M 222.070312 169.515625 "/>
<path style=" stroke:none;fill-rule:nonzero;fill:rgb(49.804688%,0%,33.332825%);fill-opacity:1;" d="M 443.171875 169.515625 L 450.148438 169.515625 L 450.148438 162.539062 L 443.171875 162.539062 Z M 443.171875 169.515625 "/>
<path style=" stroke:none;fill-rule:nonzero;fill:rgb(49.804688%,0%,33.332825%);fill-opacity:1;" d="M 451.675781 169.515625 L 458.652344 169.515625 L 458.652344 162.539062 L 451.675781 162.539062 Z M 451.675781 169.515625 "/>
<path style=" stroke:none;fill-rule:nonzero;fill:rgb(49.804688%,0%,33.332825%);fill-opacity:1;" d="M 460.179688 169.515625 L 467.15625 169.515625 L 467.15625 162.539062 L 460.179688 162.539062 Z M 460.179688 169.515625 "/>
<path style=" stroke:none;fill-rule:nonzero;fill:rgb(49.804688%,0%,33.332825%);fill-opacity:1;" d="M 494.195312 169.515625 L 501.171875 169.515625 L 501.171875 162.539062 L 494.195312 162.539062 Z M 494.195312 169.515625 "/>
<path style=" stroke:none;fill-rule:nonzero;fill:rgb(49.804688%,0%,33.332825%);fill-opacity:1;" d="M 43.484375 178.019531 L 50.457031 178.019531 L 50.457031 171.042969 L 43.484375 171.042969 Z M 43.484375 178.019531 "/>
<path style=" stroke:none;fill-rule:nonzero;fill:rgb(49.804688%,0%,33.332825%);fill-opacity:1;" d="M 51.988281 178.019531 L 58.960938 178.019531 L 58.960938 171.042969 L 51.988281 171.042969 Z M 51.988281 178.019531 "/>
<path style=" stroke:none;fill-rule:nonzero;fill:rgb(49.804688%,0%,33.332825%);fill-opacity:1;" d="M 60.492188 178.019531 L 67.464844 178.019531 L 67.464844 171.042969 L 60.492188 171.042969 Z M 60.492188 178.019531 "/>
<path style=" stroke:none;fill-rule:nonzero;fill:rgb(49.804688%,0%,33.332825%);fill-opacity:1;" d="M 68.996094 178.019531 L 75.96875 178.019531 L 75.96875 171.042969 L 68.996094 171.042969 Z M 68.996094 178.019531 "/>
<path style=" stroke:none;fill-rule:nonzero;fill:rgb(49.804688%,0%,33.332825%);fill-opacity:1;" d="M 77.5 178.019531 L 84.472656 178.019531 L 84.472656 171.042969 L 77.5 171.042969 Z M 77.5 178.019531 "/>
<path style=" stroke:none;fill-rule:nonzero;fill:rgb(49.804688%,0%,33.332825%);fill-opacity:1;" d="M 86.003906 178.019531 L 92.976562 178.019531 L 92.976562 171.042969 L 86.003906 171.042969 Z M 86.003906 178.019531 "/>
<path style=" stroke:none;fill-rule:nonzero;fill:rgb(49.804688%,0%,33.332825%);fill-opacity:1;" d="M 94.507812 178.019531 L 101.480469 178.019531 L 101.480469 171.042969 L 94.507812 171.042969 Z M 94.507812 178.019531 "/>
<path style=" stroke:none;fill-rule:nonzero;fill:rgb(49.804688%,0%,33.332825%);fill-opacity:1;" d="M 103.011719 178.019531 L 109.984375 178.019531 L 109.984375 171.042969 L 103.011719 171.042969 Z M 103.011719 178.019531 "/>
<path style=" stroke:none;fill-rule:nonzero;fill:rgb(49.804688%,0%,33.332825%);fill-opacity:1;" d="M 111.515625 178.019531 L 118.488281 178.019531 L 118.488281 171.042969 L 111.515625 171.042969 Z M 111.515625 178.019531 "/>
<path style=" stroke:none;fill-rule:nonzero;fill:rgb(49.804688%,0%,33.332825%);fill-opacity:1;" d="M 120.019531 178.019531 L 126.992188 178.019531 L 126.992188 171.042969 L 120.019531 171.042969 Z M 120.019531 178.019531 "/>
<path style=" stroke:none;fill-rule:nonzero;fill:rgb(49.804688%,0%,33.332825%);fill-opacity:1;" d="M 128.523438 178.019531 L 135.496094 178.019531 L 135.496094 171.042969 L 128.523438 171.042969 Z M 128.523438 178.019531 "/>
<path style=" stroke:none;fill-rule:nonzero;fill:rgb(49.804688%,0%,33.332825%);fill-opacity:1;" d="M 137.027344 178.019531 L 144.003906 178.019531 L 144.003906 171.042969 L 137.027344 171.042969 Z M 137.027344 178.019531 "/>
<path style=" stroke:none;fill-rule:nonzero;fill:rgb(49.804688%,0%,33.332825%);fill-opacity:1;" d="M 145.53125 178.019531 L 152.507812 178.019531 L 152.507812 171.042969 L 145.53125 171.042969 Z M 145.53125 178.019531 "/>
<path style=" stroke:none;fill-rule:nonzero;fill:rgb(49.804688%,0%,33.332825%);fill-opacity:1;" d="M 154.035156 178.019531 L 161.011719 178.019531 L 161.011719 171.042969 L 154.035156 171.042969 Z M 154.035156 178.019531 "/>
<path style=" stroke:none;fill-rule:nonzero;fill:rgb(49.804688%,0%,33.332825%);fill-opacity:1;" d="M 162.539062 178.019531 L 169.515625 178.019531 L 169.515625 171.042969 L 162.539062 171.042969 Z M 162.539062 178.019531 "/>
<path style=" stroke:none;fill-rule:nonzero;fill:rgb(49.804688%,0%,33.332825%);fill-opacity:1;" d="M 171.042969 178.019531 L 178.019531 178.019531 L 178.019531 171.042969 L 171.042969 171.042969 Z M 171.042969 178.019531 "/>
<path style=" stroke:none;fill-rule:nonzero;fill:rgb(49.804688%,0%,33.332825%);fill-opacity:1;" d="M 222.070312 178.019531 L 229.042969 178.019531 L 229.042969 171.042969 L 222.070312 171.042969 Z M 222.070312 178.019531 "/>
<path style=" stroke:none;fill-rule:nonzero;fill:rgb(49.804688%,0%,33.332825%);fill-opacity:1;" d="M 468.683594 178.019531 L 475.660156 178.019531 L 475.660156 171.042969 L 468.683594 171.042969 Z M 468.683594 178.019531 "/>
<path style=" stroke:none;fill-rule:nonzero;fill:rgb(49.804688%,0%,33.332825%);fill-opacity:1;" d="M 477.1875 178.019531 L 484.164062 178.019531 L 484.164062 171.042969 L 477.1875 171.042969 Z M 477.1875 178.019531 "/>
<path style=" stroke:none;fill-rule:nonzero;fill:rgb(49.804688%,0%,33.332825%);fill-opacity:1;" d="M 485.691406 178.019531 L 492.667969 178.019531 L 492.667969 171.042969 L 485.691406 171.042969 Z M 485.691406 178.019531 "/>
<path style=" stroke:none;fill-rule:nonzero;fill:rgb(49.804688%,0%,33.332825%);fill-opacity:1;" d="M 494.195312 178.019531 L 501.171875 178.019531 L 501.171875 171.042969 L 494.195312 171.042969 Z M 494.195312 178.019531 "/>
<path style=" stroke:none;fill-rule:nonzero;fill:rgb(49.804688%,0%,33.332825%);fill-opacity:1;" d="M 43.484375 186.523438 L 50.457031 186.523438 L 50.457031 179.546875 L 43.484375 179.546875 Z M 43.484375 186.523438 "/>
<path style=" stroke:none;fill-rule:nonzero;fill:rgb(49.804688%,0%,33.332825%);fill-opacity:1;" d="M 77.5 186.523438 L 84.472656 186.523438 L 84.472656 179.546875 L 77.5 179.546875 Z M 77.5 186.523438 "/>
<path style=" stroke:none;fill-rule:nonzero;fill:rgb(49.804688%,0%,33.332825%);fill-opacity:1;" d="M 222.070312 186.523438 L 229.042969 186.523438 L 229.042969 179.546875 L 222.070312 179.546875 Z M 222.070312 186.523438 "/>
<path style=" stroke:none;fill-rule:nonzero;fill:rgb(49.804688%,0%,33.332825%);fill-opacity:1;" d="M 43.484375 195.027344 L 50.457031 195.027344 L 50.457031 188.054688 L 43.484375 188.054688 Z M 43.484375 195.027344 "/>
<path style=" stroke:none;fill-rule:nonzero;fill:rgb(49.804688%,0%,33.332825%);fill-opacity:1;" d="M 68.996094 195.027344 L 75.96875 195.027344 L 75.96875 188.054688 L 68.996094 188.054688 Z M 68.996094 195.027344 "/>
<path style=" stroke:none;fill-rule:nonzero;fill:rgb(49.804688%,0%,33.332825%);fill-opacity:1;" d="M 222.070312 195.027344 L 229.042969 195.027344 L 229.042969 188.054688 L 222.070312 188.054688 Z M 222.070312 195.027344 "/>
<path style=" stroke:none;fill-rule:nonzero;fill:rgb(49.804688%,0%,33.332825%);fill-opacity:1;" d="M 43.484375 203.53125 L 50.457031 203.53125 L 50.457031 196.558594 L 43.484375 196.558594 Z M 43.484375 203.53125 "/>
<path style=" stroke:none;fill-rule:nonzero;fill:rgb(49.804688%,0%,33.332825%);fill-opacity:1;" d="M 60.492188 203.53125 L 67.464844 203.53125 L 67.464844 196.558594 L 60.492188 196.558594 Z M 60.492188 203.53125 "/>
<path style=" stroke:none;fill-rule:nonzero;fill:rgb(49.804688%,0%,33.332825%);fill-opacity:1;" d="M 222.070312 203.53125 L 229.042969 203.53125 L 229.042969 196.558594 L 222.070312 196.558594 Z M 222.070312 203.53125 "/>
<path style=" stroke:none;fill-rule:nonzero;fill:rgb(49.804688%,0%,33.332825%);fill-opacity:1;" d="M 43.484375 212.035156 L 50.457031 212.035156 L 50.457031 205.0625 L 43.484375 205.0625 Z M 43.484375 212.035156 "/>
<path style=" stroke:none;fill-rule:nonzero;fill:rgb(49.804688%,0%,33.332825%);fill-opacity:1;" d="M 51.988281 212.035156 L 58.960938 212.035156 L 58.960938 205.0625 L 51.988281 205.0625 Z M 51.988281 212.035156 "/>
<path style=" stroke:none;fill-rule:nonzero;fill:rgb(49.804688%,0%,33.332825%);fill-opacity:1;" d="M 222.070312 212.035156 L 229.042969 212.035156 L 229.042969 205.0625 L 222.070312 205.0625 Z M 222.070312 212.035156 "/>
<path style=" stroke:none;fill-rule:nonzero;fill:rgb(49.804688%,0%,33.332825%);fill-opacity:1;" d="M 43.484375 220.539062 L 50.457031 220.539062 L 50.457031 213.566406 L 43.484375 213.566406 Z M 43.484375 220.539062 "/>
<path style=" stroke:none;fill-rule:nonzero;fill:rgb(49.804688%,0%,33.332825%);fill-opacity:1;" d="M 51.988281 220.539062 L 58.960938 220.539062 L 58.960938 213.566406 L 51.988281 213.566406 Z M 51.988281 220.539062 "/>
<path style=" stroke:none;fill-rule:nonzero;fill:rgb(49.804688%,0%,33.332825%);fill-opacity:1;" d="M 222.070312 220.539062 L 229.042969 220.539062 L 229.042969 213.566406 L 222.070312 213.566406 Z M 222.070312 220.539062 "/>
<path style=" stroke:none;fill-rule:nonzero;fill:rgb(49.804688%,0%,33.332825%);fill-opacity:1;" d="M 34.980469 229.042969 L 41.953125 229.042969 L 41.953125 222.070312 L 34.980469 222.070312 Z M 34.980469 229.042969 "/>
<path style=" stroke:none;fill-rule:nonzero;fill:rgb(49.804688%,0%,33.332825%);fill-opacity:1;" d="M 26.476562 237.546875 L 33.449219 237.546875 L 33.449219 230.574219 L 26.476562 230.574219 Z M 26.476562 237.546875 "/>
<path style=" stroke:none;fill-rule:nonzero;fill:rgb(49.804688%,0%,33.332825%);fill-opacity:1;" d="M 17.972656 246.050781 L 24.945312 246.050781 L 24.945312 239.078125 L 17.972656 239.078125 Z M 17.972656 246.050781 "/>
</g>
</svg>
